<svg version="1.1" id="Layer_1" xmlns="http://www.w3.org/2000/svg" xmlns:xlink="http://www.w3.org/1999/xlink" x="0px" y="0px"
	 width="100%" viewBox="0 0 1372 316" enable-background="new 0 0 1372 316" xml:space="preserve">
<path fill="#000000" opacity="1.000000" stroke="none" 
	d="
M1305.000000,317.000000 
	C870.000061,317.000000 435.500092,317.000000 1.000117,317.000000 
	C1.000078,211.666733 1.000078,106.333466 1.000039,1.000145 
	C458.333221,1.000097 915.666443,1.000097 1372.999756,1.000048 
	C1372.999756,106.333199 1372.999756,211.666397 1372.999878,316.999817 
	C1350.500000,317.000000 1328.000000,317.000000 1305.000000,317.000000 
M578.199951,173.033463 
	C576.870239,173.027634 575.121155,172.466522 574.277283,173.103912 
	C567.570862,178.169128 559.900696,175.300186 552.686523,175.929962 
	C550.462097,176.124146 547.581421,176.324860 546.023560,175.157822 
	C542.045898,172.178024 538.315918,172.695190 534.201538,174.453552 
	C534.201538,187.815918 534.201538,201.213699 534.201538,214.998749 
	C549.483521,214.998749 564.567932,215.077942 579.647461,214.839722 
	C580.783142,214.821777 582.823120,212.563431 582.852295,211.309601 
	C583.106934,200.343491 582.971558,189.368851 583.018311,178.397018 
	C583.030579,175.530121 581.657043,173.983521 578.199951,173.033463 
M270.712982,132.518768 
	C271.464355,128.609741 272.686310,124.722252 272.866425,120.787079 
	C273.212189,113.231903 272.967072,105.649696 272.967072,98.326920 
	C261.911804,98.326920 251.516693,98.326920 240.998535,98.326920 
	C240.998535,106.962990 240.998520,115.270393 240.998520,123.577805 
	C240.998520,131.990311 240.998535,140.402817 240.998535,148.697510 
	C251.972351,149.279678 262.544464,146.403015 273.001526,150.644806 
	C273.001526,148.845078 273.230652,146.996796 272.954803,145.227234 
	C272.341797,141.294830 271.475830,137.401855 270.712982,132.518768 
M897.344971,139.995758 
	C895.682922,139.996063 893.753967,139.463593 892.425354,140.129333 
	C890.699463,140.994141 888.295471,142.734680 888.195374,144.232742 
	C887.742004,151.016800 887.823730,157.856888 888.163330,164.654327 
	C888.221863,165.826614 890.494690,167.859222 891.683044,167.815567 
	C894.804321,167.700943 897.930542,165.953415 900.985107,166.121597 
	C909.942505,166.614807 919.127625,163.949478 927.879150,167.894119 
	C928.716125,168.271362 929.972412,167.718262 931.992737,167.487579 
	C927.294800,158.162766 934.720215,149.155334 932.630615,140.728882 
	C928.209412,141.665482 925.151855,142.944458 922.148621,142.827393 
	C914.132690,142.514923 905.717896,145.016449 897.344971,139.995758 
M806.131531,142.437408 
	C804.809814,142.308395 803.488098,142.179382 801.999512,142.034088 
	C801.999512,151.036545 801.893555,159.338654 802.082520,167.634033 
	C802.123840,169.448593 803.216431,171.239182 803.901672,173.268250 
	C810.439514,168.853287 831.653015,168.824112 835.593628,172.732559 
	C840.290222,167.728226 837.861633,161.568207 837.767822,156.048569 
	C837.676880,150.701187 840.734009,144.284744 836.043396,140.556091 
	C825.720398,144.765244 816.183105,142.245499 806.131531,142.437408 
M461.502502,162.417984 
	C466.577576,162.417984 471.652618,162.417984 476.229675,162.417984 
	C476.229675,154.078781 476.229675,145.689590 476.229675,138.360092 
	C465.496826,140.830063 455.404083,140.640549 444.915314,138.388153 
	C445.805328,141.409348 444.929962,144.119812 446.737976,147.538116 
	C448.871368,151.571564 447.238525,157.597076 447.238525,162.417953 
	C451.277740,162.417953 455.891418,162.417953 461.502502,162.417984 
M695.936890,157.272186 
	C695.821960,159.127472 695.707031,160.982758 695.600403,162.703995 
	C705.353516,162.703995 715.042603,162.703995 724.708557,162.703995 
	C726.027893,145.777298 725.567322,140.925171 723.056702,138.180420 
	C720.546448,138.849838 718.516541,139.811661 716.465454,139.859192 
	C710.329590,140.001450 704.102539,140.305298 698.102295,139.347702 
	C696.587097,139.105896 694.183716,138.655609 693.854919,139.230865 
	C693.069824,140.604721 692.489563,143.509384 693.211548,144.098495 
	C697.496826,147.595062 695.433716,152.202072 695.936890,157.272186 
M78.987160,87.026772 
	C79.897530,83.555344 80.807892,80.083908 81.879044,75.999382 
	C72.502762,75.999382 64.398636,75.825195 56.315376,76.157928 
	C54.838196,76.218742 52.290157,78.269905 52.208900,79.529541 
	C51.793087,85.975128 51.766926,92.476852 52.130600,98.929298 
	C52.326897,102.412102 54.852245,102.979919 58.023746,101.081436 
	C59.313259,100.309517 61.085690,100.104866 62.647682,100.071045 
	C68.047279,99.954109 73.450966,100.025986 78.962898,100.025986 
	C78.962898,95.556274 78.962898,91.750000 78.987160,87.026772 
M54.260487,182.968140 
	C53.508358,183.877350 52.137367,184.765182 52.105114,185.699265 
	C51.904400,191.511826 51.618420,197.375916 52.233231,203.129684 
	C52.422733,204.903183 55.248089,207.647659 57.026768,207.779099 
	C64.237534,208.311890 71.510674,208.000458 78.709641,208.000458 
	C78.709641,199.706177 78.709641,191.972244 78.709641,183.924713 
	C74.171700,183.924713 69.876572,184.039597 65.590942,183.887390 
	C62.322380,183.771301 58.484600,185.170135 56.419697,181.049103 
	C55.924438,181.530594 55.429176,182.012085 54.260487,182.968140 
z"/>
<path fill="#FFFFFF" opacity="1.000000" stroke="none" 
	d="
M578.576660,173.233582 
	C581.657043,173.983521 583.030579,175.530121 583.018311,178.397018 
	C582.971558,189.368851 583.106934,200.343491 582.852295,211.309601 
	C582.823120,212.563431 580.783142,214.821777 579.647461,214.839722 
	C564.567932,215.077942 549.483521,214.998749 534.201538,214.998749 
	C534.201538,201.213699 534.201538,187.815918 534.201538,174.453552 
	C538.315918,172.695190 542.045898,172.178024 546.023560,175.157822 
	C547.581421,176.324860 550.462097,176.124146 552.686523,175.929962 
	C559.900696,175.300186 567.570862,178.169128 574.277283,173.103912 
	C575.121155,172.466522 576.870239,173.027634 578.576660,173.233582 
z"/>
<path fill="#FEFEFE" opacity="1.000000" stroke="none" 
	d="
M270.712982,133.005783 
	C271.475830,137.401855 272.341797,141.294830 272.954803,145.227234 
	C273.230652,146.996796 273.001526,148.845078 273.001526,150.644806 
	C262.544464,146.403015 251.972351,149.279678 240.998535,148.697510 
	C240.998535,140.402817 240.998520,131.990311 240.998520,123.577805 
	C240.998520,115.270393 240.998535,106.962990 240.998535,98.326920 
	C251.516693,98.326920 261.911804,98.326920 272.967072,98.326920 
	C272.967072,105.649696 273.212189,113.231903 272.866425,120.787079 
	C272.686310,124.722252 271.464355,128.609741 270.712982,133.005783 
z"/>
<path fill="#FDFDFD" opacity="1.000000" stroke="none" 
	d="
M897.799255,139.995895 
	C905.717896,145.016449 914.132690,142.514923 922.148621,142.827393 
	C925.151855,142.944458 928.209412,141.665482 932.630615,140.728882 
	C934.720215,149.155334 927.294800,158.162766 931.992737,167.487579 
	C929.972412,167.718262 928.716125,168.271362 927.879150,167.894119 
	C919.127625,163.949478 909.942505,166.614807 900.985107,166.121597 
	C897.930542,165.953415 894.804321,167.700943 891.683044,167.815567 
	C890.494690,167.859222 888.221863,165.826614 888.163330,164.654327 
	C887.823730,157.856888 887.742004,151.016800 888.195374,144.232742 
	C888.295471,142.734680 890.699463,140.994141 892.425354,140.129333 
	C893.753967,139.463593 895.682922,139.996063 897.799255,139.995895 
z"/>
<path fill="#FFFFFF" opacity="1.000000" stroke="none" 
	d="
M806.548157,142.648178 
	C816.183105,142.245499 825.720398,144.765244 836.043396,140.556091 
	C840.734009,144.284744 837.676880,150.701187 837.767822,156.048569 
	C837.861633,161.568207 840.290222,167.728226 835.593628,172.732559 
	C831.653015,168.824112 810.439514,168.853287 803.901672,173.268250 
	C803.216431,171.239182 802.123840,169.448593 802.082520,167.634033 
	C801.893555,159.338654 801.999512,151.036545 801.999512,142.034088 
	C803.488098,142.179382 804.809814,142.308395 806.548157,142.648178 
z"/>
<path fill="#FCFCFC" opacity="1.000000" stroke="none" 
	d="
M461.003784,162.417969 
	C455.891418,162.417953 451.277740,162.417953 447.238525,162.417953 
	C447.238525,157.597076 448.871368,151.571564 446.737976,147.538116 
	C444.929962,144.119812 445.805328,141.409348 444.915314,138.388153 
	C455.404083,140.640549 465.496826,140.830063 476.229675,138.360092 
	C476.229675,145.689590 476.229675,154.078781 476.229675,162.417984 
	C471.652618,162.417984 466.577576,162.417984 461.003784,162.417969 
z"/>
<path fill="#FEFEFE" opacity="1.000000" stroke="none" 
	d="
M695.936890,156.802917 
	C695.433716,152.202072 697.496826,147.595062 693.211548,144.098495 
	C692.489563,143.509384 693.069824,140.604721 693.854919,139.230865 
	C694.183716,138.655609 696.587097,139.105896 698.102295,139.347702 
	C704.102539,140.305298 710.329590,140.001450 716.465454,139.859192 
	C718.516541,139.811661 720.546448,138.849838 723.056702,138.180420 
	C725.567322,140.925171 726.027893,145.777298 724.708557,162.703995 
	C715.042603,162.703995 705.353516,162.703995 695.600403,162.703995 
	C695.707031,160.982758 695.821960,159.127472 695.936890,156.802917 
z"/>
<path fill="#FEFEFE" opacity="1.000000" stroke="none" 
	d="
M78.975029,87.485245 
	C78.962898,91.750000 78.962898,95.556274 78.962898,100.025986 
	C73.450966,100.025986 68.047279,99.954109 62.647682,100.071045 
	C61.085690,100.104866 59.313259,100.309517 58.023746,101.081436 
	C54.852245,102.979919 52.326897,102.412102 52.130600,98.929298 
	C51.766926,92.476852 51.793087,85.975128 52.208900,79.529541 
	C52.290157,78.269905 54.838196,76.218742 56.315376,76.157928 
	C64.398636,75.825195 72.502762,75.999382 81.879044,75.999382 
	C80.807892,80.083908 79.897530,83.555344 78.975029,87.485245 
z"/>
<path fill="#FEFEFE" opacity="1.000000" stroke="none" 
	d="
M54.597202,182.730865 
	C55.429176,182.012085 55.924438,181.530594 56.419693,181.049103 
	C58.484600,185.170135 62.322380,183.771301 65.590942,183.887390 
	C69.876572,184.039597 74.171700,183.924713 78.709641,183.924713 
	C78.709641,191.972244 78.709641,199.706177 78.709641,208.000458 
	C71.510674,208.000458 64.237534,208.311890 57.026768,207.779099 
	C55.248089,207.647659 52.422733,204.903183 52.233231,203.129684 
	C51.618420,197.375916 51.904400,191.511826 52.105114,185.699265 
	C52.137367,184.765182 53.508358,183.877350 54.597202,182.730865 
z"/>
</svg>