<svg width="335pt" height="25pt" viewBox="0 0 335 25" xmlns="http://www.w3.org/2000/svg"><g id="fontsvg1703931769065" stroke-linecap="round" fill-rule="evenodd" fill="#000000"><path d="M 309.39 18.21 L 313.95 18.21 L 313.95 0.27 A 0.203 0.203 0 0 0 313.943 0.217 C 313.913 0.11 313.8 0 313.62 0 L 309.66 0 A 0.295 0.295 0 0 0 309.596 0.008 C 309.514 0.026 309.428 0.076 309.371 0.132 A 0.31 0.31 0 0 0 309.33 0.18 L 301.14 17.76 L 292.53 0.18 A 0.146 0.146 0 0 0 292.5 0.132 C 292.443 0.067 292.328 0.012 292.252 0.002 A 0.174 0.174 0 0 0 292.23 0 L 288.21 0 A 0.367 0.367 0 0 0 288.107 0.014 C 287.972 0.054 287.912 0.169 287.91 0.267 A 0.243 0.243 0 0 0 287.91 0.27 L 287.91 23.73 C 287.91 23.85 288 24 288.21 24 L 292.17 24 C 292.343 24 292.487 23.863 292.499 23.746 A 0.151 0.151 0 0 0 292.5 23.73 L 292.5 10.26 L 299.01 22.86 A 0.146 0.146 0 0 0 299.04 22.909 C 299.097 22.974 299.212 23.029 299.288 23.039 A 0.174 0.174 0 0 0 299.31 23.04 L 303 23.04 A 0.183 0.183 0 0 0 303.038 23.036 C 303.126 23.017 303.242 22.94 303.269 22.862 A 0.12 0.12 0 0 0 303.27 22.86 L 309.39 10.59 L 309.39 18.21 Z M 119.64 0 L 115.77 0 A 0.42 0.42 0 0 0 115.611 0.031 C 115.495 0.078 115.419 0.173 115.411 0.256 A 0.15 0.15 0 0 0 115.41 0.27 L 115.41 15.9 L 104.34 0.09 A 0.073 0.073 0 0 0 104.318 0.066 C 104.261 0.023 104.129 0.002 104.074 0 A 0.206 0.206 0 0 0 104.07 0 L 100.08 0 A 0.336 0.336 0 0 0 99.816 0.159 C 99.797 0.191 99.784 0.224 99.781 0.255 A 0.152 0.152 0 0 0 99.78 0.27 L 99.78 18.24 L 104.37 18.24 L 104.37 8.1 L 115.41 23.91 A 0.073 0.073 0 0 0 115.432 23.935 C 115.489 23.977 115.621 23.999 115.676 24 A 0.206 0.206 0 0 0 115.68 24 L 119.64 24 C 119.845 24 119.964 23.857 119.97 23.739 A 0.184 0.184 0 0 0 119.97 23.73 L 119.97 0.27 A 0.203 0.203 0 0 0 119.963 0.217 C 119.933 0.11 119.82 0 119.64 0 Z M 257.88 0 L 253.95 0 C 253.778 0 253.633 0.138 253.621 0.255 A 0.151 0.151 0 0 0 253.62 0.27 L 253.62 9.69 L 258.21 9.69 L 258.21 4.38 A 16.214 16.214 0 0 1 259.047 4.358 C 263.839 4.358 267.3 6.61 267.3 12 C 267.3 19.41 261.12 19.71 258.21 19.59 L 258.21 14.31 L 253.62 14.31 L 253.62 23.73 A 0.169 0.169 0 0 0 253.627 23.778 C 253.655 23.87 253.755 23.966 253.88 23.993 A 0.331 0.331 0 0 0 253.95 24 L 257.88 24 A 26.146 26.146 0 0 0 261.006 23.822 C 265.696 23.255 270.599 21.14 271.694 14.793 A 16.413 16.413 0 0 0 271.92 12 A 16.17 16.17 0 0 0 271.506 8.209 C 269.842 1.302 263.487 0.092 258.497 0.006 A 35.855 35.855 0 0 0 257.88 0 Z M 228.3 4.38 L 228.3 9.69 L 232.89 9.69 L 232.89 0.27 A 0.203 0.203 0 0 0 232.883 0.217 C 232.853 0.11 232.74 0 232.56 0 L 228.66 0 C 222.78 0 214.59 1.35 214.59 12 C 214.59 21.993 222.274 23.904 228.19 23.997 A 30.022 30.022 0 0 0 228.66 24 L 232.56 24 C 232.765 24 232.884 23.857 232.89 23.739 A 0.184 0.184 0 0 0 232.89 23.73 L 232.89 19.59 L 228.3 19.59 A 20.454 20.454 0 0 1 227.757 19.606 C 224.787 19.649 219.561 19.02 219.227 12.657 A 12.506 12.506 0 0 1 219.21 12 A 9.482 9.482 0 0 1 219.652 9 C 220.729 5.76 223.682 4.358 227.463 4.358 A 16.214 16.214 0 0 1 228.3 4.38 Z M 11.4 19.53 L 4.59 19.53 L 4.59 14.13 L 14.01 14.13 C 14.183 14.13 14.327 13.993 14.339 13.876 A 0.151 0.151 0 0 0 14.34 13.86 L 14.34 10.05 A 0.257 0.257 0 0 0 14.208 9.835 C 14.154 9.802 14.088 9.782 14.017 9.78 A 0.405 0.405 0 0 0 14.01 9.78 L 4.59 9.78 L 4.59 4.35 L 11.4 4.35 L 11.4 0 L 0.33 0 C 0.158 0 0.013 0.138 0.001 0.255 A 0.151 0.151 0 0 0 0 0.27 L 0 23.73 A 0.169 0.169 0 0 0 0.007 23.778 C 0.035 23.87 0.135 23.966 0.26 23.993 A 0.331 0.331 0 0 0 0.33 24 L 11.4 24 L 11.4 19.53 Z M 183.63 19.53 L 176.82 19.53 L 176.82 14.13 L 186.24 14.13 C 186.413 14.13 186.557 13.993 186.569 13.876 A 0.151 0.151 0 0 0 186.57 13.86 L 186.57 10.05 A 0.257 0.257 0 0 0 186.438 9.835 C 186.384 9.802 186.318 9.782 186.247 9.78 A 0.405 0.405 0 0 0 186.24 9.78 L 176.82 9.78 L 176.82 4.35 L 183.63 4.35 L 183.63 0 L 172.56 0 C 172.388 0 172.243 0.138 172.231 0.255 A 0.151 0.151 0 0 0 172.23 0.27 L 172.23 23.73 A 0.169 0.169 0 0 0 172.237 23.778 C 172.265 23.87 172.365 23.966 172.49 23.993 A 0.331 0.331 0 0 0 172.56 24 L 183.63 24 L 183.63 19.53 Z M 284.25 19.53 L 277.44 19.53 L 277.44 14.13 L 286.86 14.13 C 287.033 14.13 287.177 13.993 287.189 13.876 A 0.151 0.151 0 0 0 287.19 13.86 L 287.19 10.05 A 0.257 0.257 0 0 0 287.058 9.835 C 287.004 9.802 286.938 9.782 286.867 9.78 A 0.405 0.405 0 0 0 286.86 9.78 L 277.44 9.78 L 277.44 4.35 L 284.25 4.35 L 284.25 0 L 273.18 0 C 273.008 0 272.863 0.138 272.851 0.255 A 0.151 0.151 0 0 0 272.85 0.27 L 272.85 23.73 A 0.169 0.169 0 0 0 272.857 23.778 C 272.885 23.87 272.985 23.966 273.11 23.993 A 0.331 0.331 0 0 0 273.18 24 L 284.25 24 L 284.25 19.53 Z M 36.93 0 L 32.13 0 A 0.293 0.293 0 0 0 32.109 0.001 C 32.038 0.006 31.892 0.035 31.861 0.088 A 0.048 0.048 0 0 0 31.86 0.09 L 26.19 8.1 L 23.67 4.59 L 18.09 4.59 A 3894.575 3894.575 0 0 1 20.73 8.318 A 356.34 356.34 0 0 0 23.37 12 L 15.15 23.55 A 0.427 0.427 0 0 0 15.12 23.59 C 14.986 23.789 15.109 24 15.39 24 L 20.19 24 A 0.293 0.293 0 0 0 20.211 24 C 20.282 23.994 20.428 23.966 20.459 23.913 A 0.048 0.048 0 0 0 20.46 23.91 L 26.19 15.9 L 28.68 19.41 L 34.26 19.41 C 32.49 16.92 30.72 14.43 28.95 12 L 37.23 0.45 A 0.388 0.388 0 0 0 37.259 0.403 C 37.361 0.206 37.235 0 36.93 0 Z M 46.47 0 L 38.7 0 A 0.336 0.336 0 0 0 38.436 0.159 C 38.417 0.191 38.404 0.224 38.401 0.255 A 0.152 0.152 0 0 0 38.4 0.27 L 38.4 4.41 L 42.9 4.41 L 46.47 4.41 C 47.01 4.41 50.01 4.56 50.01 7.2 C 50.01 9.686 47.404 9.885 46.598 9.899 A 6.939 6.939 0 0 1 46.47 9.9 L 42.9 9.9 L 38.4 9.9 L 38.4 23.73 C 38.4 23.85 38.55 24 38.7 24 L 42.6 24 A 0.367 0.367 0 0 0 42.703 23.987 C 42.838 23.947 42.898 23.832 42.9 23.734 A 0.243 0.243 0 0 0 42.9 23.73 L 42.9 14.34 L 46.47 14.34 A 7.444 7.444 0 0 0 46.783 14.333 C 48.335 14.268 54.57 13.615 54.57 7.2 A 8.689 8.689 0 0 0 54.371 5.295 C 53.313 0.576 48.33 0.061 46.807 0.007 A 9.42 9.42 0 0 0 46.47 0 Z M 148.95 0 L 141.12 0 C 140.948 0 140.803 0.138 140.791 0.255 A 0.151 0.151 0 0 0 140.79 0.27 L 140.79 14.25 L 145.35 14.25 L 148.95 14.25 A 0.85 0.85 0 0 1 148.957 14.25 C 149.13 14.244 152.463 14.15 152.794 16.501 A 2.791 2.791 0 0 1 152.82 16.89 C 152.82 19.005 150.833 19.536 149.347 19.611 A 7.934 7.934 0 0 1 148.95 19.62 L 145.38 19.62 L 145.38 24 L 148.95 24 A 13.269 13.269 0 0 0 149.592 23.985 C 151.887 23.874 157.41 23.022 157.41 17.01 A 0.427 0.427 0 0 0 157.41 17.007 C 157.414 16.881 157.484 13.586 154.234 12.186 A 6.455 6.455 0 0 0 153.75 12 C 155.58 11.25 157.08 9.66 157.08 6.87 C 157.08 -0.18 148.95 0 148.95 0 Z M 88.2 23.64 L 79.08 0.18 C 79.003 -0.024 78.686 -0.054 78.539 0.09 A 0.247 0.247 0 0 0 78.48 0.18 L 69.39 23.64 C 69.314 23.793 69.388 23.945 69.576 23.988 A 0.508 0.508 0 0 0 69.69 24 L 73.8 24 C 73.92 24 74.07 23.94 74.1 23.82 L 78.78 10.44 L 83.52 23.82 C 83.55 23.94 83.7 24 83.79 24 L 87.93 24 C 88.125 24 88.268 23.846 88.216 23.68 A 0.264 0.264 0 0 0 88.2 23.64 Z M 139.83 23.64 L 130.71 0.18 C 130.633 -0.024 130.316 -0.054 130.169 0.09 A 0.247 0.247 0 0 0 130.11 0.18 L 121.02 23.64 C 120.944 23.793 121.018 23.945 121.206 23.988 A 0.508 0.508 0 0 0 121.32 24 L 125.43 24 C 125.55 24 125.7 23.94 125.73 23.82 L 130.41 10.44 L 135.15 23.82 C 135.18 23.94 135.33 24 135.42 24 L 139.56 24 C 139.755 24 139.898 23.846 139.846 23.68 A 0.264 0.264 0 0 0 139.83 23.64 Z M 213.63 23.64 L 204.51 0.18 C 204.433 -0.024 204.116 -0.054 203.969 0.09 A 0.247 0.247 0 0 0 203.91 0.18 L 194.82 23.64 C 194.744 23.793 194.818 23.945 195.006 23.988 A 0.508 0.508 0 0 0 195.12 24 L 199.23 24 C 199.35 24 199.5 23.94 199.53 23.82 L 204.21 10.44 L 208.95 23.82 C 208.98 23.94 209.13 24 209.22 24 L 213.36 24 C 213.555 24 213.698 23.846 213.646 23.68 A 0.264 0.264 0 0 0 213.63 23.64 Z M 252.66 23.64 L 243.54 0.18 C 243.463 -0.024 243.146 -0.054 242.999 0.09 A 0.247 0.247 0 0 0 242.94 0.18 L 233.85 23.64 C 233.774 23.793 233.848 23.945 234.036 23.988 A 0.508 0.508 0 0 0 234.15 24 L 238.26 24 C 238.38 24 238.53 23.94 238.56 23.82 L 243.24 10.44 L 247.98 23.82 C 248.01 23.94 248.16 24 248.25 24 L 252.39 24 C 252.585 24 252.728 23.846 252.676 23.68 A 0.264 0.264 0 0 0 252.66 23.64 Z M 328.89 4.59 L 326.37 8.1 L 320.67 0.09 A 0.191 0.191 0 0 0 320.625 0.058 C 320.555 0.021 320.448 0.001 320.376 0 A 0.425 0.425 0 0 0 320.37 0 L 315.63 0 A 0.555 0.555 0 0 0 315.493 0.016 C 315.279 0.071 315.209 0.256 315.315 0.428 A 0.405 0.405 0 0 0 315.33 0.45 C 318.24 4.53 321.21 8.61 324.09 12.72 L 324.09 23.73 A 0.203 0.203 0 0 0 324.097 23.784 C 324.127 23.891 324.24 24 324.42 24 L 328.35 24 C 328.523 24 328.667 23.863 328.679 23.746 A 0.151 0.151 0 0 0 328.68 23.73 L 328.68 12.72 L 334.47 4.59 L 328.89 4.59 Z M 98.94 19.89 L 96.54 19.89 L 96.54 11.4 L 96.54 4.11 L 96.54 0 L 91.95 0 L 91.95 4.11 L 91.95 11.4 L 91.95 19.89 L 89.49 19.89 C 89.323 19.89 89.181 19.994 89.162 20.129 A 0.223 0.223 0 0 0 89.16 20.16 L 89.16 23.73 A 0.169 0.169 0 0 0 89.167 23.778 C 89.195 23.87 89.295 23.966 89.42 23.993 A 0.331 0.331 0 0 0 89.49 24 L 98.94 24 C 99.145 24 99.264 23.857 99.27 23.739 A 0.184 0.184 0 0 0 99.27 23.73 L 99.27 20.16 C 99.27 20.023 99.169 19.911 98.991 19.893 A 0.511 0.511 0 0 0 98.94 19.89 Z M 59.97 14.94 L 59.97 0.27 A 0.206 0.206 0 0 0 59.963 0.219 C 59.935 0.111 59.825 0 59.67 0 L 55.71 0 C 55.538 0 55.393 0.138 55.381 0.255 A 0.151 0.151 0 0 0 55.38 0.27 L 55.38 14.94 L 59.97 14.94 Z M 162.84 14.94 L 162.84 0.27 A 0.206 0.206 0 0 0 162.833 0.219 C 162.805 0.111 162.695 0 162.54 0 L 158.58 0 C 158.408 0 158.263 0.138 158.251 0.255 A 0.151 0.151 0 0 0 158.25 0.27 L 158.25 14.94 L 162.84 14.94 Z M 68.34 19.53 L 59.97 19.53 L 55.38 19.53 L 55.38 23.73 A 0.169 0.169 0 0 0 55.387 23.778 C 55.415 23.87 55.515 23.966 55.64 23.993 A 0.331 0.331 0 0 0 55.71 24 L 68.34 24 C 68.545 24 68.664 23.857 68.67 23.739 A 0.184 0.184 0 0 0 68.67 23.73 L 68.67 19.83 A 0.294 0.294 0 0 0 68.542 19.589 C 68.501 19.561 68.453 19.542 68.396 19.534 A 0.412 0.412 0 0 0 68.34 19.53 Z M 171.21 19.53 L 162.84 19.53 L 158.25 19.53 L 158.25 23.73 A 0.169 0.169 0 0 0 158.257 23.778 C 158.285 23.87 158.385 23.966 158.51 23.993 A 0.331 0.331 0 0 0 158.58 24 L 171.21 24 C 171.415 24 171.534 23.857 171.54 23.739 A 0.184 0.184 0 0 0 171.54 23.73 L 171.54 19.83 A 0.294 0.294 0 0 0 171.412 19.589 C 171.371 19.561 171.323 19.542 171.266 19.534 A 0.412 0.412 0 0 0 171.21 19.53 Z M 148.95 9.78 L 145.35 9.78 L 145.35 4.29 L 148.95 4.29 C 148.95 4.29 152.468 4.261 152.49 7.113 A 3.491 3.491 0 0 1 152.49 7.14 C 152.49 9.78 148.95 9.78 148.95 9.78 Z" vector-effect="non-scaling-stroke"/></g></svg>